<svg xmlns="http://www.w3.org/2000/svg" width="200" height="200" viewBox="0 0 1257 472"><defs><filter id="filter_1" width="1.072" height="1.207" x="-.029" y="-.065" primitiveUnits="userSpaceOnUse" style="color-interpolation-filters:srgb"><feGaussianBlur in="SourceAlpha" stdDeviation="8"/><feOffset dx="13" dy="13" result="offset_1"/><feFlood flood-color="#000" flood-opacity="1" result="flood_1"/><feComposite in="flood_1" in2="offset_1" operator="out" result="innerShadow_1"/><feComposite in="innerShadow_1" in2="SourceAlpha" operator="in" result="Layer2"/><feComposite in="Layer2" in2="SourceGraphic" result="Shadows"/></filter><filter id="filter_2" width="1.034" height="1.115" x="-.013" y="-.038" primitiveUnits="userSpaceOnUse" style="color-interpolation-filters:srgb"><feGaussianBlur in="SourceAlpha" stdDeviation="8"/><feOffset dx="7" dy="13"/><feColorMatrix result="dropShadow_1" values="0 0 0 0 0 0 0 0 0 0 0 0 0 0 0 0 0 0 1 0"/><feComposite in="SourceGraphic" in2="dropShadow_1" result="Layer1"/></filter></defs><g style="filter:url(#filter_1)" transform="translate(2.286 -382.192)scale(1.20622)"><path d="M414 668c1-17-8-41 9-53 20-12 44 11 31 31-4 16-26 7-31 8-1 6 1 14-1 18-4-1-9 2-8-4m28-22c20-12-11-40-18-16-4 12 6 22 18 16m194 25c-16-3-2-13 7-7 12 7 23-21 8-11-25 10-38-31-15-39 20-8 37 11 32 30 4 16-10 32-26 28h-3Zm16-26c17-8-1-34-15-21-9 10 1 29 15 21m-454 10c-21-11 1-31 18-25 9-7-9-12-15-9-20-1 5-14 14-8 17 2 18 34 6 42-7 1-15 1-23 0m19-7c9-13-8-14-16-9-9 9 11 12 16 9m22 7c-3-14-6-41 15-42 19-5 27 15 23 31 2 6-3 18-8 9 0-13 0-42-19-30-7 7 4 38-11 32m58-1c-18-8-15-40 6-42 10 1 19 8 16-6 0-6-1-13 7-10 5 0 1 11 3 15-1 14 4 32-8 41-7 5-16 5-24 2m19-9c14-13-12-37-20-16-5 13 9 25 20 16m51 10c-15-3-4-16 6-8 11 7 33-9 14-15-10-3-27-5-28-17-2-18 19-22 33-19 16 0 7 17-4 8-19-7-26 19-4 18 19-1 30 26 9 32-8 3-18 3-26 1m108-1c-18-8-13-41 8-42 16-6 32 23 10 26-9-1-28 2-10 9 5 2 26-4 16 7q-12 4.5-24 0m17-24c10-17-28-7-16 2 5 0 11 0 16-2m22 25c-2-20 0-40 0-59 8-3 8 4 8 10-1 16 1 33-1 48-1 3-5 2-7 1m21 0c-2-20-1-40-1-60 8-1 10 2 9 10v51c-3 0-5 0-8-1m42 0c-2-14-6-38 12-42 11-4 28 3 26 16v26c-10 5-10-4-9-11 5-13-7-32-20-18-1 9-1 19-1 29-3 0-6 2-8 0m139 0c-25-7-25-48-1-57 7-6 38-2 27 9-11-5-29-4-33 10-7 18 9 37 27 30 14-7 9 14-4 9-5 0-11 0-16-1m41 0c-5-2-1-11-2-16v-44c18-5 0 32 19 18 20-5 23 17 21 31 2 7-2 17-9 9 1-13 1-42-18-29-4 10-3 20-3 30-3 1-5 2-8 1m58-1c-19-8-14-40 6-42 23-6 30 31 4 27-13-4-15 7-2 9 8-3 27 1 11 7-6 1-13 2-19-1m16-24c10-17-28-8-16 2 5 0 11 0 16-2m30 24c-22-8-13-45 10-42 12-3 17 14 3 9-24-3-17 36 5 26 17 7-13 12-18 7m33 1c-6-13-2-30-3-44-6-11 11-24 10-9 1 8-5 33 7 23 3-7 32-19 17-3-4 5-18 10-7 15 7 6 23 24 4 16-8-10-25-24-21-2 2 5-3 4-7 4m53-1c-18-10-11-43 10-42 18-4 28 26 6 26-8 1-25-1-10 9 6 3 30-5 18 7-7 3-16 3-24 0m16-23c16-15-25-12-15 1 5 0 10 0 15-1m24 24c-5-13-7-42 14-43 16 0 10 14-2 10-9 7-4 20-5 30 1 4-5 4-7 3m-432-1c0-14 0-27 1-40 14-3 7 18 9 27-2 4 3 15-5 14h-3Zm-454-19c-29-31-58-63-86-94-10-17 19-27 28-38 14-17 25 10 36 19 10 7 23 37 35 16 46-48 91-98 137-147 14-11 25 15 36 22 13 9 15 22 1 32q-82.5 90-168 180c-5 4-12 17-19 10m454-31c-7-14 21-4 5 1h-3Zm-136-42c-24-5-39-31-36-55 1-22 19-42 41-44 14-2 42-4 42 15-8 13-26-9-40 0-32 6-32 58-3 68 13 6 36 4 30-16 2-8-2-10-10-9-17 6-17-20 0-14 8 1 29-4 27 10 0 13 0 25-1 37-13 11-34 10-50 8m138-1c-21-2-25-34-4-39 11-4 23-3 35-3 0-18-22-18-35-13-13 2-7-19 6-15 17-4 39 0 45 18 1 14 0 28 0 41-3 18-34 12-47 11m28-12c5-3 2-12 3-17-5-4-19-1-26 0-18 13 12 24 23 17m313 13c-17-2-26-24-13-35 12-10 28-8 42-8 1-21-26-16-39-12-11-21 29-19 40-14 21 7 15 31 16 47 6 26-27 24-43 22Zm27-13c5-3 2-12 3-17-5-4-20-2-27 0-17 14 14 24 24 17m-436 12c-5-3-1-12-2-17 1-16-3-34 6-47 11-6 36-11 41 2-1 16-33-4-29 19-4 13 7 40-9 44-2 0-4 0-7-1m135 0c-4-14-1-30-2-44-2-17 18-28 33-27 15-2 24 18 37 3 16-8 40 0 44 18-1 16 1 32-1 48-19 14-17-17-16-30 6-18-18-34-30-17-2 8 0 16-1 24v24c-23 11-16-19-17-32 6-19-23-34-30-15-5 16 2 36-6 49-3 0-8 0-11-1m131 0c-3-18-3-38-1-56 12-18 42-19 57-5 15-15 47-13 54 10 2 16 3 34 0 50-23 10-14-22-16-35 5-18-23-28-30-11 0 15 1 30-1 45-20 14-18-17-17-29 9-22-28-36-31-13-3 14 6 37-6 45-3 0-6 0-9-1m209 0c-6-14-2-33-2-49-1-22 25-22 41-20 13 4 3 21-9 13-10-2-17 7-15 16 0 13 2 27-2 40-4 1-9 1-13 0m-709-52c0-15 20-27 29-40 10-14 28-25 33-42-6-16-24-25-35-38-12-8-19-21 1-26 13-4 30-23 42-8 21 10 6 28 1 42-4 16 14 32-2 46-20 23-40 46-61 67-2 3-6 3-8-1m265-79c-11-3-21-14-19-26 1-14-2-29 2-42 22-9 14 20 16 32-9 22 28 34 31 11 5-14-6-36 7-44 21-2 9 28 11 41 1 18-14 31-32 30-5 0-11 0-16-2m273 1c-30-9-31-58-2-69 17-8 45-2 47 20 0 20-24 20-38 21-19-4-9 13 2 14 11 7 26-9 33 2 3 17-31 13-42 12m22-42c20-19-31-24-28 0 1 6 15 0 20 1 3 0 6 0 8-1m45 41c-19 2-13-25 2-13 9 6 41 0 25-12-15-4-43-6-39-28 4-21 31-19 47-16 17-2 11 24-3 13-14-9-41 8-14 13 18 1 42 17 28 36-11 13-31 9-46 7m84 1c-33-7-32-65 1-70 16-5 44 1 42 22-1 20-25 19-39 20-23 0 7 22 18 15 9-7 26-1 16 10-12 4-26 5-38 3m15-41c21-2 4-25-10-16-20 10-14 22 10 16m-552 39c-4-5-1-12-2-18 0-25-1-51 1-76 16-7 33-4 50-3 19-1 34 22 24 39-7 8-15 10-2 15 15 12 8 41-12 43-19 3-38 2-57 2Zm52-15c21-13-6-31-22-26-5 1-15-4-13 5 1 9-5 27 11 24 8-1 17 0 24-3m-2-42c19-12-4-31-20-26-5 1-15-4-13 5v23c11-1 22 1 33-2m130 58c-3-17-3-35-1-53 4-19 29-19 44-15 12 12-6 16-16 13-11-1-11 9-11 17 0 13 1 26-1 38q-7.5 1.5-15 0m57-1c-2-18-1-36 0-54 12-21 41-19 58-6 15-13 42-14 52 5 5 18 2 38 3 57-17 5-19-11-17-24 4-17-6-43-26-30-10 14-3 33-5 49-6 13-23 1-17-11-1-15 5-44-19-41-11 0-13 9-12 18 0 13 1 25-1 38-5 2-12 2-16-1m-311-81c-5-13 11-23 22-22 1 11-10 29-22 22" style="fill:#3e3b39;filter:url(#filter_2)"/></g></svg>